<?xml version="1.0" encoding="utf-8"?>
<!-- Generator: Adobe Illustrator 25.4.1, SVG Export Plug-In . SVG Version: 6.00 Build 0)  -->
<svg version="1.1" id="レイヤー_1" xmlns="http://www.w3.org/2000/svg" xmlns:xlink="http://www.w3.org/1999/xlink" x="0px"
	 y="0px" viewBox="0 0 1280 640" style="enable-background:new 0 0 1280 640;" xml:space="preserve">
<g transform="translate(0.000000,640.000000) scale(0.100000,-0.100000)">
	<path d="M3165,5991c-179-128-180-129-212-197c-18-37-29-72-25-76c5-5,31-11,58-14l49-6l50,91l49,90l143,67c79,37,143,70,143,74
		c0,7-69,101-73,99C3346,6119,3264,6061,3165,5991z"/>
	<path d="M10583,6097c-17-7-34-15-37-18s26-15,64-28c54-17,71-27,75-44c3-12,12-55,20-96c9-41,17-76,18-76c6-5,360-26,364-22
		c6,7-17,119-27,130c-4,5-46,3-94-4l-87-12l-59,65c-51,56-70,69-130,92c-39,14-72,26-73,25C10616,6109,10601,6103,10583,6097z"/>
	<path d="M4541,6060c-30-11-161-84-290-162c-362-218-352-212-347-228c2-8,29-86,60-172c30-87,54-158,51-158c-2,0-61,50-131,110
		c-70,61-130,110-133,110c-3-1-33-7-66-14l-60-12l3-105c2-57,4-105,5-106s31,4,65,12c48,10,65,10,68,1c2-6,22-68,43-136l38-125
		l-50-13c-27-7-50-12-52-10c-1,2,2,33,8,69c10,70,5,125-16,152c-11,14-16,14-45,2c-30-13-32-17-21-36c10-19,4-28-52-85
		c-35-35-69-64-76-64s-20,11-29,25c-15,23-14,25,20,60c38,38,52,72,43,108c-4,12-23,102-43,200c-20,97-40,177-44,177
		c-5,0-33-33-64-73l-56-73l39-117c22-64,38-117,35-117c-2,0-52,18-110,40c-59,22-112,40-118,40s-29-27-51-60l-40-60h-187
		c-104,0-188-3-188-7c-1-5-16-25-34-47l-33-39l-48,29l-48,28l-96-103l-96-102l-42,6c-41,7-42,7-57-30l-16-37l-81,97
		c-44,53-79,99-76,102c11,10,68-9,97-34l30-25l75,17c137,30,139,60,11,154c-89,66-97,70-172,81c-139,19-134,17-134,55
		c0,27-6,37-36,54c-19,12-40,21-46,21s-95-39-197-86l-186-87l-144-203c-110-156-150-204-170-209c-19-4-39-27-75-83l-48-77l6-75
		c4-41,12-80,18-87c17-21,51-15,112,18c33,17,69,29,84,27c23-3,28-12,49-80c21-69,26-78,47-78c41,0,55,11,62,46c3,19,29,63,59,100
		l52,66l-18,74l-19,74l66,92c37,51,77,107,90,125l24,31l47-14c25-8,48-16,51-18c2-3-35-42-82-88l-86-83l10-70c8-53,17-76,37-97
		c31-33,55-35,154-12c99,22,132,4,67-37c-26-15-43-18-76-14c-51,8-93-17-118-71c-9-19-24-39-34-44c-9-5-36-38-59-74
		c-41-62-45-66-116-89l-73-25l-38,24c-27,16-48,22-66,18c-54-11-112,58-78,92c15,15-5,37-28,30c-29-10-37-42-21-89c12-36,11-41-6-53
		c-11-8-25-12-32-9c-28,10-65-21-143-120l-80-102l-54,5c-54,4-54,4-61-27c-4-20-16-36-31-43c-28-13-28-22-9-103c22-90,27-85-78-85
		c-89,0-94-1-146-36l-53-36l6-62c4-33,10-78,13-99l6-38l136,6l136,7l90,92c83,85,98,96,197,140c81,37,114,47,134,42
		c15-4,65-46,114-97c48-49,92-89,99-89c6,0,11-11,11-25c0-29,11-32,32-7c31,36,29,50-12,83c-22,18-42,39-45,48c-2,9-19,22-36,30
		c-30,13-69,63-69,89c0,31,36,18,137-50c78-52,108-78,105-90c-2-9,13-42,33-74c34-53,38-56,68-50c35,7,47,20,47,54c0,20,5,22,55,22
		c49,0,95,18,142,55c2,1-2,15-9,31c-10,29-8,35,42,98c49,63,55,67,84,61c57-12,65-16,68-36c2-11,15-28,30-37c25-15,28-15,48,3
		c13,11,18,25,14,37c-5,16,1,18,46,18c48,0,51-1,45-21c-6-17,5-34,56-85c71-71,75-65-51-83c-57-8-69-7-96,10l-32,19l-151-57l-151-57
		v-33c0-22,9-43,28-64l27-31l61,13c50,10,73,10,135-2l74-14v-35c0-31-7-39-87-98l-87-63l-96,25c-127,34-243,36-271,5
		c-38-43-46-42-184,18l-132,56l-46,70l-47,70l-95-6c-53-3-144-17-204-31c-68-17-137-26-187-26c-78,0-80-1-143-46
		c-61-44-65-49-85-118l-21-71l-109-85c-126-98-116-73-126-325l-6-150l93-91c58-57,121-107,168-134l75-42l141,5c133,5,144,6,203,36
		l63,32l95-37c52-21,98-45,102-53c5-9,11-54,14-101l6-85l56-52l55-52v-203v-204l49-146c35-104,61-163,89-203c33-45,41-66,47-119
		l6-64l76-7c73-7,77-6,176,36c94,40,110,51,199,138l97,94l47,141l47,141l93,95l93,96l-19,109c-11,61-20,119-20,130
		c0,14,53,69,165,170c140,127,172,162,210,227c25,42,45,80,45,83s-52,5-116,5h-116l-87,80c-82,75-93,91-193,268
		c-58,103-109,197-113,210c-7,23-6,23,23,8c17-9,37-13,45-10c15,5,30-10,33-32c1-7,71-108,155-225c85-117,157-217,161-222
		c4-7,39-2,95,13c119,31,326,140,359,189c13,20,24,40,24,45s8,18,17,28c16,18,14,21-25,61c-23,24-42,49-42,56c0,14-2,14-88-17
		c-29-11-63-17-76-15c-13,3-53,35-89,71c-52,53-66,74-69,102l-3,35l40-3c31-3,59-18,125-68c55-42,88-60,94-54c17,17,64,11,79-10
		c19-27,134-60,212-61c134-1,159-10,229-77c58-56,67-61,90-52c28,10,23,19,58-115c5-22,27-61,48-86s53-76,71-112s42-70,53-75
		c18-8,24-3,44,30c12,22,22,55,22,72c0,21,8,40,21,52c12,10,44,49,71,86c30,41,62,71,81,79c18,7,68,33,112,59s89,52,101,58
		c18,9,29,4,85-45c35-31,77-79,93-107c36-65,32-61,60-48c23,10,25,8,51-50c24-53,27-70,23-129c-5-70,2-89,41-101c8-2,22-25,30-50
		c11-33,29-57,61-82c24-19,46-33,48-32c2,2-4,30-12,62c-11,40-23,65-41,77c-14,11-39,38-55,62c-24,35-30,54-30,95v51l38-7
		c79-13,162-70,162-110c0-8,3-14,8-14c8,0,104,68,136,96c28,25,15,75-38,145c-51,68-55,85-26,122c17,21,45,31,173,61l153,37l87,80
		c48,45,91,88,96,98c6,10,1,62-13,144l-23,128l38,27c21,15,39,30,39,33c0,4-32,15-72,24l-71,18l64,33c74,38,79,39,79,19
		c0-11,12-15,44-15c47,0,70-17,56-40c-7-12-2-17,22-26c25-8,32-17,34-43c4-35,20-71,32-71c15,0,72,59,72,74c0,9-18,33-40,55
		c-22,21-40,44-40,50s15,18,33,27c17,9,46,32,63,52c25,29,45,40,93,52c50,12,77,27,141,80c48,40,79,73,80,85c0,11,29,58,64,104
		l63,84l-14,76c-8,42-17,79-21,82c-4,4-36,12-72,19c-35,6-82,21-102,31l-38,19l131,110c72,61,138,110,147,110s120-9,246-20
		c176-15,233-17,243-8c12,10,11,15-9,29c-12,10-21,19-18,22c98,78,123,97,131,97c5,0,21-7,34-16c23-15,27-15,71,11l47,27l-7-25
		c-14-57-27-76-121-166c-62-60-94-98-91-108c3-8-1-28-10-46c-22-42-13-136,18-177c12-17,25-30,29-30s26,33,49,73c23,39,52,81,64,92
		c33,30,81,161,69,188c-8,17-4,31,15,63c25,40,27,42,91,48c36,3,88,6,115,6c41,0,58,7,110,44c33,24,85,65,114,91c38,34,63,48,92,52
		c22,3,40,7,40,9s-9,26-20,54s-20,52-20,54s20,9,45,16c36,10,53,23,81,62l37,49l31-28c17-15,59-55,93-87c60-58,63-59,78-41
		c17,23,33,76,37,125c3,31-1,37-34,54l-37,21l-27-25c-15-14-28-20-31-15c-2,6-13,27-26,48c-20,35-42,48-231,139
		c-226,108-216,107-238,36c-6-21-17-38-23-38c-7,0-38,11-68,26c-55,25-57,25-162,13l-106-12l-40,39c-21,21-39,45-39,54
		c0,10-9,25-20,35c-18,17-28,17-111,7l-91-11l-73,42c-64,36-75,46-80,75l-6,34l-79-7c-76-7-78-6-82,16c-2,19-14,26-71,40l-68,17
		l-54-78c-60-85-53-81-197-96l-67-7l-72,63c-75,68-74,63-53,144c6,25,2,28-71,62c-42,19-78,34-80,32s-10-28-17-58
		c-17-64,4-63-212-15l-149,34l-180-75c-99-41-181-73-182-72c-1,2-5,38-7,80c-6,87-13,78,98,113c49,16,51,18,67,69
		c23,70,22,111-3,136c-23,23-41,24-145,9c-42-6-78-9-81-6s-1,22,5,44c9,32,8,40-6,51C4659,6085,4604,6082,4541,6060z M2232,4756
		c8-12,11-36,4-36c-2,0-11-3-19-6c-10-3-18,5-26,27c-6,18-11,34-11,36C2180,4785,2225,4767,2232,4756z M2125,4730c17-18,17-21,1-45
		c-13-20-22-24-39-19c-27,8-33,14-41,41c-5,17-1,23,21,31C2106,4752,2105,4752,2125,4730z M4930,4335c0-29-4-36-25-41
		c-14-3-31-15-39-25c-14-21-93-52-107-43c-6,3,11,21,36,40s50,32,55,29c6-3,14,5,19,18c8,20,46,57,58,57
		C4929,4370,4930,4354,4930,4335z M2828,3963c11-10,23-28,27-41c5-19,1-25-27-36c-18-8-36-17-40-21s11-30,33-57c26-33,38-57,34-69
		c-3-10,1-32,9-48c22-42,21-88-3-101c-27-14-114-13-129,2s-15,60,0,93c10,22,8,29-14,53c-14,15-31,43-37,62s-23,46-37,61l-26,27
		l79,45C2785,3984,2799,3987,2828,3963z M3150,3917c0-33-25-97-38-97c-3,0-16,10-29,22c-33,31-31,73,5,92
		C3134,3959,3150,3955,3150,3917z"/>
	<path d="M10030,6065c-10-13-10-23,3-55c15-39,15-40-6-40c-12,0-48,6-79,14l-57,13l-48-49l-47-48l27-28c26-25,29-26,38-9
		c8,13,23,17,64,17c45,0,57-4,73-25l19-24l68,22c57,18,72,28,91,59c13,21,24,40,24,42s-15,7-32,11c-60,12-65,15-88,65
		C10055,6084,10049,6088,10030,6065z"/>
	<path d="M10363,6037c-45-12-84-25-88-29c-14-14,25-66,54-73c21-5,37-19,56-51c20-34,31-44,43-39c10,4,30,12,45,17
		c28,10,29,13,22,57c-13,91-27,141-38,140C10450,6059,10408,6048,10363,6037z"/>
	<path d="M6012,5974c-29-20-30-75-1-115l20-29l52,30c76,43,86,77,31,109C6072,5994,6042,5996,6012,5974z"/>
	<path d="M10557,5923c-7-43-3-49,51-73l39-18l11,36c6,20,10,37,9,37c-1,1-23,13-49,28s-49,27-51,27S10560,5943,10557,5923z"/>
	<path d="M6187,5916c-3-8,0-20,8-26c17-14,55,3,55,25C6250,5935,6194,5935,6187,5916z"/>
	<path d="M6339,5878c-7-12-2-21,23-36c27-17,35-18,60-8c34,15,38,26,12,41c-11,5-21,12-24,15C6399,5902,6347,5894,6339,5878z"/>
	<path d="M9569,5751c-32-50-47-94-55-161c-5-44-4-46,40-78l45-33l43,19c60,26,113,105,132,197c8,38,14,70,13,71s-44,8-96,16l-93,15
		L9569,5751z"/>
	<path d="M10638,5733c-25-10-40-25-47-46c-6-16-11-31-11-33s17-12,37-23l38-19l45,23c36,18,49,31,57,59c6,20,8,38,4,41
		C10739,5748,10671,5747,10638,5733z"/>
	<path d="M10395,5693c3-27,8-58,11-70c4-20,1-22-26-17c-27,6-30,4-30-19c0-22,8-28,66-47c36-12,67-20,68-19c2,2,16,28,30,57l27,53
		l-21,35c-12,19-23,34-25,34c-3,0-27,9-55,20l-51,20L10395,5693z"/>
	<path d="M6130,5720c0-5,9-10,20-10s20,5,20,10c0,6-9,10-20,10S6130,5726,6130,5720z"/>
	<path d="M11154,5708c-8-25-3-29,69-61l57-26v34c0,40-24,59-82,68C11167,5728,11160,5725,11154,5708z"/>
	<path d="M10871,5684l-54-36l7-70c6-65,9-73,62-139l56-69h111c94,0,124-4,207-30c102-31,110-38,110-93c0-31,5-34,95-76
		c52-24,95-47,95-50c0-8-76-61-87-61c-4,0-28,14-53,30s-49,30-55,30c-5,0-41-23-78-50l-68-50l28-38c15-20,28-38,29-40
		c0-1,32,5,69,13l68,16l41-40c23-23,45-41,50-41c8,0,323,186,339,200c5,4-27,33-70,63l-79,56l-26,88l-27,88l-53-3c-52-3-54-2-135,65
		c-65,54-82,74-82,96c-1,32-7,33-108,13l-72-13l-6,28c-9,39-29,36-57-8c-27-45-32-33-26,64l4,63h-72c-51,0-75,4-84,15
		C10933,5725,10932,5725,10871,5684z"/>
	<path d="M2890,5622c-12-31-28-76-37-100c-15-41-15-44,3-63c11-11,46-27,78-36c51-14,59-15,73-1c13,14,13,18,0,39
		c-8,13-17,61-21,108c-3,46-7,86-9,88c-3,2-18,8-35,12C2911,5678,2911,5678,2890,5622z"/>
	<path d="M10070,5609c-124-32-120-32-197,0l-53,21l-30-60c-16-33-30-61-30-64c0-2,21-7,47-11c31-4,70-23,119-56c69-46,73-51,94-115
		l22-66l47,5c25,4,83,9,128,13l83,7l25,45c14,25,24,51,22,56c-3,6-34,19-70,29l-65,19l-7,104c-4,57-10,104-14,103
		C10188,5638,10133,5625,10070,5609z"/>
	<path d="M10605,5508c-31-139-32-158-7-158c10,0,21-2,24-6c10-9-45-134-59-134c-8,0-28,7-45,16c-29,15-36,15-87-1
		c-43-13-85-16-179-13l-123,3l-5-25c-3-14-7-30-9-36c-2-8-32-6-102,8c-135,26-153,32-278,101l-110,60l-213,6c-139,4-217,2-222-4
		s-12-23-15-38c-4-15-11-29-15-32s-126,27-271,65c-145,39-329,84-409,102l-145,31l-162-99c-89-54-163-102-163-105s29-27,65-53
		c81-59,88-69,41-61c-40,8-86-14-86-41c0-8-6-27-14-43l-15-27l75-37c41-20,74-40,74-45c0-4-36-49-80-99l-80-91l81-106
		c44-58,84-106,87-106s15,11,27,25l20,25l42-33c34-26,43-40,50-78l8-46l52,38c29,22,84,78,124,126c40,49,77,93,82,98c6,6,7-7,3-37
		c-4-27-4-48-1-48c4,0,22,7,41,16c32,16,42,15,236-24c112-23,226-44,254-48c48-6,54-10,129-95c59-67,92-117,134-202l56-112l55-15
		c48-14,59-22,88-64c37-56,39-66,13-66c-16,0-20-15-33-112c-15-109-14-114,7-194c29-105,31-107,111-184c37-36,130-142,206-237
		c128-160,181-210,211-200c6,2-2,12-18,23c-30,19-165,217-165,242c0,19,32-6,167-127c135-122,187-185,173-211c-27-50-18-57,133-104
		c78-25,176-54,217-64c52-13,149-58,318-145c200-103,248-124,266-117c17,6,32,3,55-11c18-11,31-23,29-27s-31-61-64-127l-61-120
		l34-90c18-49,50-131,69-182l36-92l116-87c64-48,118-88,120-89c2-2-2-104-8-228c-11-223-11-227-50-342l-39-117l16-75
		c15-70,15-87-1-269l-18-195l28-40c33-48,68-74,88-66c8,3,42,76,76,163c34,86,85,205,115,263l53,106l124,64c100,52,141,81,220,154
		c75,69,100,99,108,127c8,31,48,73,217,231l206,194l84,173l83,174l-64,91l-64,92l-212,45l-211,44l-27,55c-27,54-27,54-199,147
		c-164,88-179,93-295,116l-123,24l-175-44c-147-37-180-42-209-33c-23,7-38,7-51-1c-15-10-28-5-74,31c-71,55-72,56-88,121l-13,54
		l-51-3l-51-2l-17,44c-16,42-16,46,3,89l19,46l-36,6c-63,10-72,8-89-29c-17-35-17-35-67-28c-28,3-73,11-101,17l-50,11l-5,125
		c-3,69-5,127-3,129c5,7,391,93,426,94c32,1,44-4,68-31c16-18,29-42,29-55c1-12,16-39,34-61l33-38l12,30c11,25,10,35-4,63
		c-10,19-26,44-37,55l-19,22l101,93l101,94l-5,60c-7,69,4,96,28,76c19-16,23-13,124,77c53,48,82,82,82,96c0,13,20,37,51,63l51,43
		l43-30l42-29l64,17c83,23,90,45,20,62l-51,12v58v57l-37,7c-21,3-51,6-67,6c-17,0-26,4-20,8c5,5,103,39,219,76c115,37,211,69,213,71
		c3,3-46,81-65,104c-2,3-28-3-59-13s-57-16-59-14s-35,75-75,163c-39,88-72,161-74,162c-1,1-26-5-54-14l-53-17l-118,118l-119,119
		l-64-26l-63-25l-3-125c-2-111,0-131,18-164c11-21,20-41,20-45s-21-19-46-34c-42-25-45-30-40-58c11-70,18-186,10-186
		c-5,0-26,10-48,23c-29,17-48,41-80,101l-41,79l-200,114c-110,63-204,119-210,124c-6,6,1,51,20,127l29,117l78,81c43,44,78,84,78,87
		c0,4-19,28-41,52c-48,52-51,51,88,35c82-9,83-9,158,26l76,34l-22,31c-20,28-20,32-6,47c15,14,12,18-41,49c-31,18-60,33-63,33
		s-12-25-19-55c-7-31-17-58-21-61c-5-3-60,34-124,82l-115,87l-21,71c-12,39-26,77-32,84C10632,5537,10611,5532,10605,5508z
		 M9694,5154c9-3,16-16,16-29c0-16,8-25,26-29l27-7l-28-29c-15-15-46-33-70-39c-66-16-68-15-62,23c4,26,2,36-11,41c-12,4-4,14,33,40
		c27,19,50,35,51,35S9685,5157,9694,5154z M9919,4825c40-10,82-13,112-9c47,6,49,6,49-18c0-21-11-28-97-60c-75-26-108-34-141-30
		l-44,4l38,39c36,37,37,38,20,63C9837,4844,9836,4844,9919,4825z M10508,4294c19-5,22-13,21-53c0-25-4-55-8-66c-7-17-10-14-20,21
		c-6,22-20,49-31,59c-15,14-17,21-9,32C10474,4302,10476,4302,10508,4294z M10959,3991c29-22,81-52,116-67c40-18,69-37,79-55l17-28
		l-31,11c-27,9-34,7-55-12c-19-18-27-20-44-11c-12,7-21,20-21,31c0,29-17,33-53,13c-29-18-32-23-29-64l3-44l-26,29
		c-21,22-25,37-23,69c3,37,8,43,47,64c1,1,0,6-3,12c-4,6-18,6-39,0s-50-5-85,3l-54,12l24,18c28,22,99,58,114,58
		C10902,4030,10930,4012,10959,3991z"/>
	<path d="M247,5096c-32-6-61-16-65-22s-20-14-36-18c-23-6-34-2-55,18l-26,25l-30-23l-29-23l25-13c13-7,51-38,84-70
		c57-55,63-58,122-63l63-5l65,70c36,39,65,73,65,77c0,9-96,61-111,60C311,5108,279,5103,247,5096z"/>
	<path d="M10960,4998c0-13-9-38-20-55l-20-33l25-6c14-3,25-9,25-13c1-29,50-36,50-6c0,8,15,12,44,11c24-1,48,3,52,7
		c15,15-13,42-61,60c-27,10-55,27-63,38C10974,5026,10960,5025,10960,4998z"/>
	<path d="M7850,4902c0-13,36-43,43-36c9,9-16,44-30,44C7856,4910,7850,4906,7850,4902z"/>
	<path d="M750,4556c-5-13-18-27-29-31c-24-7-28-40-6-49c9-3,12-12,8-22s0-20,10-26c12-6,17-22,17-53c0-40,2-45,23-45
		c35,0,39-10,17-40c-25-35-25-36,0-43c30-8,26-51-5-65c-26-12-37-62-12-62c32,1,179,38,190,49c6,6,12,26,13,44c0,18,3,39,7,47
		c4,10-20,45-73,105c-64,72-80,96-80,121c0,17-7,37-15,44c-9,7-13,21-10,31C815,4592,762,4587,750,4556z"/>
	<path d="M8447,4493c-18-17-5-33,23-31c33,2,36,8,18,26C8475,4501,8457,4504,8447,4493z"/>
	<path d="M650,4373c-14-10-38-18-55-18c-30,0-30,0-33-65c-2-56,0-67,17-77c29-18,111,17,111,47c0,11-5,20-10,20c-6,0-1,18,12,39
		c19,33,20,41,9,55C684,4394,680,4394,650,4373z"/>
	<path d="M6157,4303c-4-3-7-47-7-97s-8-126-17-168c-9-43-15-80-12-82c2-2,14-6,25-10c18-6,21-3,17,17c-3,14,6,46,19,73
		c20,40,23,57,17,89c-4,22-8,63-9,90C6189,4292,6177,4324,6157,4303z"/>
	<path d="M12013,4108c-29-21-61-84-48-96c2-3,46-15,97-27c88-21,107-20,108,6c0,3-27,25-59,49c-40,28-61,51-63,67l-3,23L12013,4108z
		"/>
	<path d="M9440,4102c1-14,26-37,53-49c33-15,35-4,5,24C9473,4099,9440,4114,9440,4102z"/>
	<path d="M11806,4081c-3-5,1-11,9-15c9-3,15,0,15,9C11830,4091,11814,4095,11806,4081z"/>
	<path d="M6460,3970c0-5,5-10,11-10c5,0,7,5,4,10c-3,6-8,10-11,10C6462,3980,6460,3976,6460,3970z"/>
	<path d="M11785,3950c3-5,10-10,16-10c5,0,9,5,9,10c0,6-7,10-16,10C11786,3960,11782,3956,11785,3950z"/>
	<path d="M11862,3929c2-6,8-10,13-10s11,4,13,10s-4,11-13,11S11860,3935,11862,3929z"/>
	<path d="M6126,3883c-3-4-6-14-6-24s-13-27-30-39c-47-33-37-65,12-39c14,8,23,8,31,0c17-17,42-13,61,8c10,11,28,22,41,25
		c33,8,41,36,11,36c-14,0-45,9-69,19C6152,3880,6129,3886,6126,3883z"/>
	<path d="M6036,3662c-61-70-143-134-186-147c-14-4-35-14-48-21c-20-13-21-16-8-30c13-12,20-13,37-3c19,9,21,9,16-4
		c-11-28,5-26,79,14c41,21,85,39,97,39c19,0,26,10,42,56c10,31,31,72,46,91c27,34,28,34,8,54c-10,10-20,19-21,19
		C6096,3730,6068,3699,6036,3662z"/>
	<path d="M1443,3613c-28-5-30-19-4-28c23-7,53,4,48,18C1483,3616,1472,3618,1443,3613z"/>
	<path d="M5719,3424c-10-13-11-18-2-21c7-2,9-12,6-21c-4-13,0-11,18,5c21,21,22,24,8,38C5735,3440,5732,3439,5719,3424z"/>
	<path d="M5815,3420c-3-5-2-10,4-10c5,0,13,5,16,10c3,6,2,10-4,10C5826,3430,5818,3426,5815,3420z"/>
	<path d="M5352,3118c-17-17-15-38,3-38c12,0,35,28,35,44C5390,3135,5364,3130,5352,3118z"/>
	<path d="M11061,3036c-10-12-3-17,41-32c29-9,76-28,103-41c56-26,105-30,105-9s-18,30-116,59c-50,14-97,29-106,32
		C11080,3048,11068,3044,11061,3036z"/>
	<path d="M4921,2949c-17-14-21-23-14-30c14-14,83,17,83,37C4990,2977,4949,2972,4921,2949z"/>
	<path d="M11460,2923c-28-5-50-21-50-34c0-5,23-9,51-9c46,0,50,2,47,22C11505,2926,11497,2929,11460,2923z"/>
	<path d="M5363,2912c-29-3-32-7-43-54c-6-28-9-52-8-53c11-8,130-75,134-75c2,0,4,9,4,19c0,11-15,28-35,41c-38,24-40,31-24,78
		C5405,2909,5401,2916,5363,2912z"/>
	<path d="M11270,2890c0-5,5-10,11-10c5,0,7,5,4,10c-3,6-8,10-11,10C11272,2900,11270,2896,11270,2890z"/>
	<path d="M5410,2691c0-6,5-13,10-16c6-3,10,1,10,9c0,9-4,16-10,16C5415,2700,5410,2696,5410,2691z"/>
	<path d="M5266,2641c-11-12-16-24-12-28c9-9,39,22,34,37C5286,2657,5278,2654,5266,2641z"/>
	<path d="M3843,2618c-4-7-8-15-9-18c0-3-4-14-9-24c-11-26,20-49,46-35c22,11,26,58,7,77C3863,2633,3853,2633,3843,2618z"/>
	<path d="M5468,2606c-52-31-54-34-32-51c20-15,91-20,110-7c15,9-12,82-30,81C5510,2629,5488,2618,5468,2606z"/>
	<path d="M5120,2504c-47-30-108-65-135-78c-46-21-51-27-63-72c-7-27-13-53-14-59c0-5,17-20,38-32c30-18,55-23,109-23h71l56,58
		c53,53,88,117,88,160c0,34-33,102-49,101C5212,2559,5167,2534,5120,2504z"/>
	<path d="M4410,2479c48-68,156-171,227-216c40-26,73-53,73-60c0-11,12-13,48-11c74,5,65,30-46,132c-50,47-99,86-108,86s-39,20-66,45
		c-28,25-58,45-68,45s-32,3-51,7l-33,6L4410,2479z"/>
	<path d="M5304,2332c-27-42-29-52-22-91c9-52,10-53,32-45c11,4,16,19,16,48v41l22-38c32-54,53-41,34,21c-6,18-4,22,13,22
		c32,0,25,20-9,27c-48,9-31,33,25,33c32,0,56,10,49,21c-3,5-33,9-67,9h-62L5304,2332z"/>
	<path d="M5574,2365c-4-9-4-18-2-21c9-8,39,8,35,19C5601,2381,5580,2383,5574,2365z"/>
	<path d="M5752,2284c3-23,23-33,218-115c168-70,225-89,263-89c28,0,73-10,109-25c34-14,65-22,70-17c4,4-29,44-75,89l-82,81l-121,36
		c-90,27-140,36-195,36c-45,1-84,6-99,15c-14,8-40,14-58,15C5752,2310,5749,2307,5752,2284z"/>
	<path d="M5680,2260c0-5,5-10,10-10c6,0,10,5,10,10c0,6-4,10-10,10C5685,2270,5680,2266,5680,2260z"/>
	<path d="M4840,2166c0-24,38-44,115-60c68-14,71-14,93,6c34,33,27,45-30,51C4841,2183,4840,2183,4840,2166z"/>
	<path d="M6375,2170c3-5,15-10,26-10s17,5,14,10c-3,6-15,10-26,10S6372,2176,6375,2170z"/>
	<path d="M5355,2102c-29-16-29-17-7-20c23-4,52,13,52,29C5400,2124,5389,2122,5355,2102z"/>
	<path d="M5470,2060c0-5,11-10,24-10c14,0,28,5,31,10c4,6-7,10-24,10S5470,2066,5470,2060z"/>
	<path d="M5315,2041c-6-11,9-23,19-14c9,9,7,23-3,23C5325,2050,5319,2046,5315,2041z"/>
	<path d="M5735,1950c-58-48-62-50-123-50c-62,0-63,0-206-96c-102-68-166-103-222-122l-79-27l-7-77c-6-71-4-85,28-180
		c18-56,34-118,34-138v-37l74-6c66-6,99-1,297,43c122,28,230,50,240,50c9,0,71-25,136-55c101-48,128-66,190-127c71-70,72-71,113-64
		c27,4,47,2,56-5c10-9,26-4,66,18c46,26,62,44,125,144l71,114l-14,124c-9,89-18,129-31,145c-10,11-80,87-156,167
		c-89,95-135,152-132,161c4,9-7,25-29,41c-19,15-37,27-39,27c-3,0-10-31-17-69c-9-57-16-73-37-87c-25-16-28-16-80,10
		c-47,23-53,29-47,50c5,23-1,28-65,60c-39,20-74,36-78,36C5798,2000,5768,1978,5735,1950z"/>
	<path d="M2651,1931c-12-16-41-37-66-47c-25-9-45-19-45-23c0-3-8-54-18-113l-19-107l48-20c26-12,50-21,53-21s37,62,75,138
		c62,123,69,143,64,180c-5,40-7,42-39,42C2679,1960,2666,1953,2651,1931z"/>
	<path d="M7000,1669c0-8,9-20,20-27s20-8,20-4c0,5-9,17-20,27C7005,1679,7000,1680,7000,1669z"/>
	<path d="M7303,1165l-33-14l21-35c16-27,18-39,10-55c-16-29-13-49,10-83l22-30l58,58l58,57l-51,59c-28,32-54,58-57,58
		C7338,1179,7320,1173,7303,1165z"/>
	<path d="M7194,938c-38-28-89-74-112-101l-44-50l30-29c28-29,30-29,64-15c30,13,37,22,43,54c5,32,15,45,62,78c30,22,60,43,65,46
		c10,7-19,69-32,69C7266,990,7233,967,7194,938z"/>
	<path d="M6241,962c-8-16-7-30,7-60c14-34,20-39,38-32c14,6,23,20,27,46c7,43,3,50-35,59C6258,980,6249,977,6241,962z"/>
	<path d="M11542,371l-43-28l48-31c40-26,55-30,86-25c53,8,54,19,2,32c-40,10-44,14-47,46l-3,35L11542,371z"/>
</g>
</svg>
