<svg xmlns="http://www.w3.org/2000/svg" viewBox="0 0 492.49 151.48"><g id="レイヤー_2" data-name="レイヤー 2"><g id="元のテキスト"><path d="M2.82,6.64C2.21,4,3,2.21,5.43,1,7,2.61,7,4.63,7,6.44l.6,15.08c0,2-.6,4.22-.2,6.23.6,2.82-.8,5.63.4,8.45-1,2.41,0,5-.8,7.44-.4,1.41.6,2.82.4,4.22a10.09,10.09,0,0,0-.2,4.23,26.21,26.21,0,0,1,.4,6.84,1.53,1.53,0,0,1-.4,1l1,2.82a4.07,4.07,0,0,0-.61,1.4c.4,3-.4,5.84-.2,8.65.2,3.42,0,6.84,0,10.26,0,1.21-.4,2.61.2,3.82a.91.91,0,0,1,0,1c-.8,2.21-.2,4.62-.2,6.83,0,4.23-.4,8.45.81,12.67A1.94,1.94,0,0,1,8,109.2c-.2.41,0,.81,0,1.21l.41,7.84a4.36,4.36,0,0,1,0,1.61,4.59,4.59,0,0,0,.4,3.62c-1,1.41-.4,2.82.4,4.63.2-3.22.2-6,.6-8.85s.21-5.83.61-8.85a34.79,34.79,0,0,0,.8-7.84,34.33,34.33,0,0,1,.81-7.85c.4-2,.2-4,.6-6l1.81-11.46c.6-3.62,1.81-7,2.61-10.66A8.5,8.5,0,0,1,18.7,63c-.6-2.42,1-4.43,1.81-6.64,1.21-3.62,2.22-7.44,4.23-10.86,1.2-2,2.41-4,3.42-6A44.81,44.81,0,0,1,35.8,27.75c1-1.2,1.81-2.61,3-3.82,2-2.21,4.83-3,6.84-4.82a4.37,4.37,0,0,0,2.21.2,12.39,12.39,0,0,0,2.42,1,5.77,5.77,0,0,1,3.42,3.42c1,3,2.41,5.83,2,9.05a39,39,0,0,0,.2,4.83,16.81,16.81,0,0,1-.6,4.42c-.61,2-.61,4.23-1.41,6.24a13.05,13.05,0,0,0-.4,4,3.77,3.77,0,0,1-.21,1.61c-1.6,3.82-2,8-3.82,11.86-.8,1.61-1,3.42-1.61,5-1,2.21-1.4,4.63-3,6.64-.81,1-.4,2.21-.81,3.42-1,2.41-2.61,4.62-2.81,7.64A29.15,29.15,0,0,1,53.9,82.66a25.37,25.37,0,0,1,4.82,1.4c2.42,1.21,3.22,3.22,4.23,5.23a13.11,13.11,0,0,1,.8,2.62c.61,1.81,1.41,3.62.4,5.43-.4.8.61,1.81-.2,2.81,1.81,0,2.62-1.4,3.82-2.21,4.63-3,9.46-5.43,15.49-4.62l1.61,1.2a5.84,5.84,0,0,1,.2,2.62,4.06,4.06,0,0,1-3,2.21c-1.4-.2-1.4-1.41-1.81-2.41-7.44,1.81-12.67,6.83-17.69,11.46a2.28,2.28,0,0,0,0,2,23.62,23.62,0,0,0-2,5.23l-.4,1.21c-2.21,4-3.42,8.44-6,12.06-.81,1.21-.81,2.82-1.61,4l-4.22,6a24.73,24.73,0,0,1-4,5c-2.61,2.21-4,2.21-6.43-.21l-1.21-1.2a6.21,6.21,0,0,1,.81-5,2.49,2.49,0,0,0,.4-2.82c1.41-1,1.61-2.61,2.21-4,1-2.81,3-5,4-7.84a16.68,16.68,0,0,1,3.22-4.43c3-3.62,5.63-7.64,9.25-10.65.81-.81,1-2,1.61-3-1-1.81.4-3.42.81-5.43-1-2.62-.21-5.63-1.41-8.45l-2-2-2.22-.6c-4.22.4-7.64,2.61-10.65,5.23-1.81,1.4-3.83,2.81-5,5-.81,1.41-2.21,2.42-3,3.83-.4.6-1.21.8-2,1.2a4.12,4.12,0,0,1-1.81-1,8.49,8.49,0,0,1-.2-3.22c1.41-1.41,1.61-3.42,2.21-5.23l3-8.45c.2-.4.6-.6,1-1a5.89,5.89,0,0,1,1.41-4.43c.6-.6,0-1.61.4-2.41.41-.6,1.21-.6,1.61-1.61V73.81a8.92,8.92,0,0,0,1.61-4A16,16,0,0,1,44,64a2.93,2.93,0,0,0,.41-1.81c.2-.8.2-1.81.8-2.41.8-1,.8-2.21,1-3.42l2.41-8.45a25.26,25.26,0,0,0,1.41-8.64c0-1.41-.2-3,.6-4.43a.89.89,0,0,0,0-1c-.8-2.42-.6-5-1.41-7.44a10,10,0,0,0-1.81-3.22c-1-.4-2,.6-3,0A38.65,38.65,0,0,0,35,33.59c-2.41,4-5.43,7.64-6.83,12.26a18.48,18.48,0,0,1-3.22,6.64,4.15,4.15,0,0,0-.81,2.21A157.87,157.87,0,0,0,18.9,71.19a146.67,146.67,0,0,0-3.41,15.69c-.41,3.42-.81,6.84-1.41,10.26l-1,7.44c-.6,4,0,8-.8,12.07.8,2.61-.81,5.22-.2,8a7.26,7.26,0,0,1-.41,5v.6c.81,2.62.21,5.23.21,7.84v9.66a5,5,0,0,1-.41,2.41l-1.81,1.21a3.34,3.34,0,0,1-2.61-1,61.9,61.9,0,0,1-2.21-8.85C4.22,138.16,3,135,3.22,131.53c.2-2.62-.81-5.23-.61-7.85,0-.8-.8-1.2-1-2,1-1.4.2-2.81-.4-4.22a6,6,0,0,0,.4-3.22,10.14,10.14,0,0,1-.4-4.22,13.23,13.23,0,0,0-.2-4c-.21-1.81.2-3.62,0-5.23A47.24,47.24,0,0,1,.6,95.33c0-1.61.2-3.22.2-4.83,0-1.41-.6-2.82-.6-4.42,0-1.21-.4-2.42.2-3.62a4,4,0,0,0,.2-1.61C0,78,.6,75.22.4,72.4.2,69.79,1,67.17,0,64.76c.8-2.62.2-5.23.4-7.85,0-1.2.2-2.41.2-3.41,0-2,.61-3.83.2-5.64A5.45,5.45,0,0,1,1,45.25a11,11,0,0,0,0-3.62,33.45,33.45,0,0,1,0-9.05,9.82,9.82,0,0,0,.2-2.41C1,29,.4,27.55,1.21,26.35v-.61c-.81-4,.4-8,0-12.06A5,5,0,0,0,1,11.26,3.32,3.32,0,0,1,.8,8.85a6,6,0,0,0,0-4.22Zm51.68,114c.4-1,1.41-1.61,1.21-3.42-5.43,7-10.06,14.28-12.47,22.72a2,2,0,0,0,1-.8c1.81-2.61,3.83-5,5-8,1.41-3.62,3.42-7,5-10.45Z"/><path d="M77.62,77.43l1-1.61a8.13,8.13,0,0,1,5.83-1.61,3,3,0,0,1,2,.6c1.61,1.81,3.42,3.42,4.43,5.84a18.08,18.08,0,0,1,1.2,8.64,6.09,6.09,0,0,1-2.41,1.41H79.43c-1.4,1.61-.2,3.62-1.6,4.83.4,1.61.6,3.22-.21,4.42,1,3.82,0,7.85,2.22,11.26.6.61,1.4.41,2.21.41,2.61-1.21,3.22-4.23,5.63-5.43,2.41-4.43,5.83-8.25,8.25-13.08a5.51,5.51,0,0,0,2-2.21,35.27,35.27,0,0,1,3.42-6,6.76,6.76,0,0,1,2.41-2.41c1-.41,1.41.4,2.21.6a21.29,21.29,0,0,1-5.43,10c-.4,2.62-2.21,4.83-3.62,7a75.88,75.88,0,0,1-7.64,10.26,18,18,0,0,1-4,3.82c-1.41,1-3,1.21-4.63,1.81a2.89,2.89,0,0,1-2.21-.6l-2.62-1.61c-.4-1-.6-2.21-1.6-2.82,0-3.62-2.62-6.83-1-10.45a6.69,6.69,0,0,1-.2-4.43c.2-1.21-.2-2.61.2-4,.6-2.41.4-5,1.81-7.24.6-.81-.2-1.41,0-2,.6-1.81,1-3.82,2.21-5.43Zm1.21,10.66a29,29,0,0,1,9.45-.81c.41-2.61-.6-4.62-1.2-6.63s-2-3-4.43-2.82C80.44,80.65,79.64,84.06,78.83,88.09Z"/><path d="M163.49,76.82c2,1.41,2,1.41,2.42,3.42-1,.61-1.61-.4-2.42-.2,0,.2-.2.4-.2.61.2,2.61-.2,5.22.2,7.84.2,1.61,0,3.42.2,5.23.21,2.21.21,4.22,1,6.23.4,1,0,2.21.2,3.22a13,13,0,0,0,1.21,4c.6.4,1.2.4,1.41,0,.8-1.2,2-2,2.61-3.22,2-3.82,4.63-7.24,6.23-11.26a23.22,23.22,0,0,1,3.83-6.84h1.2a2.77,2.77,0,0,1,1,1.61,17.87,17.87,0,0,1-.81,3.22c-1.2,2.82-2.61,5.43-4,8-1.61,2.81-3.62,5.43-5.43,8a10.49,10.49,0,0,1-6.43,4.42c-3.42-1.4-4-2.41-4.83-6.43-.2-.81-.81-1.61-1-2.41-.4-2.82-.4-5.64-1.2-8.45a2.81,2.81,0,0,1,0-1.81c.2-.6-.2-1-.61-1.61a5.94,5.94,0,0,1-2,4,4.4,4.4,0,0,0-1,1.61c-.81,3-3.42,4.43-5.23,6.24-1.41.4-2.42-.41-3.62-.61A19.44,19.44,0,0,1,145,94.92a23.12,23.12,0,0,1,1.21-8.44c1.41-3.82,2.61-8,6.63-10.46a8.26,8.26,0,0,1,9.26.6Zm-14.28,17.7c1,1.41-.6,3.22,1,5,.8-1.41,2-2.21,2.61-3.62l5-10.86a11.77,11.77,0,0,0,1-6.44c-2.62-.2-3.42.21-4.63,2a29.6,29.6,0,0,0-3.82,9.85C150,91.91,149.42,93.32,149.21,94.52Z"/><path d="M256,81.05c-.4-1.21-.6-2.62-1.61-3.62.2-.81.6-1.21.4-2,0-.2-.2-.41-.4-.61A4.21,4.21,0,0,1,253,72.6c-.2-1.61-1.2-3-1.81-4.42a57.24,57.24,0,0,0-6.63-11.27,17.2,17.2,0,0,0-5.23-4.82c-1.81-1-3.42-2.42-5.23-3.22a40,40,0,0,0-5.23-1.61c-2.21-.4-4.43-.2-6.64-1a8.93,8.93,0,0,1-4,.6,5,5,0,0,0-2.41.2,24.71,24.71,0,0,1-8.25,2.41,3.56,3.56,0,0,1-1.61-1,3,3,0,0,1-.4-1.81l1.61-2a17.92,17.92,0,0,0,5.63-1.41c1.81-.6,3.82-1,5.23-2,1.61-1.21,3.82,0,5-1.81,2,0,3.42-2.21,5.63-1.41,3.22-2,7-2.41,10.46-4,3.41-1.81,7.44-2,11.06-3.42,3.42-1.41,7.24-1.81,10.86-3.22,1.61-1.81.8-5,3-7,2.22,1.61,1,3.62,1.21,5.63a14.49,14.49,0,0,0,5.83-1.2c1-.41,1.81-.81,2.82-.2,1.81-1.81,4.62.2,6.23-2,1.41.81,2.82.21,4.23.41l1.6-1.21,5.43-.4c1.41-.2,3.22-.4,4.63,1,.8-1.4,2-1.2,3.22-1.2,2.41,0,4.82,0,7.24.2,3,.2,6,0,9,.8l2.61.81c1.61-.81,3,.2,4.63.6a15.6,15.6,0,0,1,6.43,4.22,5.67,5.67,0,0,1,2,4.23,6.56,6.56,0,0,0,.61,1.81c-.2,1-1,1.4-1.61,1.81-2.82-.81-3.62-3.62-5.43-5.43a5.63,5.63,0,0,1-3-.81,2.84,2.84,0,0,0-1.2-.4c-3.83-.4-7.65-1.41-11.47-1.21-1.2,0-2.41-.8-3.82-.2-1,.4-2.41-.4-3.82,0-1.21.4-2.61-.6-3.62.4a6.61,6.61,0,0,0-3.42,0c-1.41.41-3,.21-4.42.61-2.82.6-5.84-.2-8.45,1.41a5,5,0,0,1-2.41.2h-3.82c-1.41,1.81-3.62,1.4-5.43,1.61-2,.2-3.83.8-5.84,1.2-1,2-1,4.23-1,6.44.2,5.43-.61,10.86-.81,16.29l-.6,13.87a30.63,30.63,0,0,1-.4,6,12.3,12.3,0,0,0,.2,3.82,2.6,2.6,0,0,1-.2,1.21c-.61,1.81-.2,3.82-.4,5.63a23.35,23.35,0,0,0,.4,5.23c.4,3.82,1.41,7.64,1,11.46-.2,2.21.41,4.22.61,6.23.2,2.22.2,4.43.2,6.64a24.46,24.46,0,0,1,.2,3.82c-.6,3.22.6,6.44-.4,9.65-.2.41.2,1,.2,1.61a21.55,21.55,0,0,1-1,8.05,2.81,2.81,0,0,1-1.41,1.61,6.35,6.35,0,0,1-3.41-3.42c.2-2.42-.61-4.83-.81-7.24,0-.2-.2-.61-.2-.81.8-1.81,0-3.42-.2-5.23a17.89,17.89,0,0,1-.2-4.62,7.66,7.66,0,0,0-.4-4.22,4,4,0,0,1,0-2.22c.8-2.41.2-4.82.4-7.24.2-3.42-.4-6.83.6-10.25.2-1-.8-1.61-.4-2.42.6-1.61,0-3.21.4-4.82a4.73,4.73,0,0,0-.4-4c-.81-1.2-.6-2.81-1-4.22ZM250.57,36.8c-2.21-.6-4.22,1.81-6.84,1.21-1.61,1.61-3.42,1.41-5,1.81A61.37,61.37,0,0,0,227.64,43c4.23.2,7.44,2,10.66,3.82.4.2,1,.2,1.41.6a43.3,43.3,0,0,1,8.65,8.45A50.35,50.35,0,0,1,257.81,74c.2-3.42.2-6.84.6-10.26s.2-7,.81-10.46c.4-2.61.4-5.22.6-7.84a77,77,0,0,1,1-9.65,1.83,1.83,0,0,0-1.21-1.21c-2.41.4-4.83,1-7.24,1.21-.4.2-.4,1-1.41,1Z"/><path d="M283,84.47c.6-4.83.6-9.66-1.21-14.28-1-1.21-2.62-1.61-3-3.42.2-.6.4-1.61,1.81-1.81,1.41.4,2,2,3.62,2.81,4,0,8.25-1,12.87-.4l2,3c-.2,1.21,1.21,2.81.41,4.83-1.21,3.82-.81,8-1.81,11.86-1,3.42-1,6.84-1.61,10.26a51.84,51.84,0,0,0-1.21,7.84c-.2,3.22-.8,6.44-.6,9.65a10.35,10.35,0,0,0,.6,4.23c.81,0,1.21-.61,1.61-1.21l8.45-10a70.57,70.57,0,0,1,5.43-5.64c1-1,2.41-1.2,3.42-1.81s2,0,2.61,1a3.62,3.62,0,0,1-.8,1.81c-2.82.8-4.83,3-6.64,5.23-3.42,3.82-6.44,8-10.06,11.87a22.21,22.21,0,0,1-3.42,2.61,4.38,4.38,0,0,1-3.82-.81c-.4-.8-.2-2-1.2-2.41-.2-1.81,0-3.42-.61-5a7.28,7.28,0,0,1-.2-3.62,5.73,5.73,0,0,0,0-2.61,2.58,2.58,0,0,1-.2-1.21,46.74,46.74,0,0,0,1.21-9.25c0-1.21,1.2-2.21.6-3.62,1.61-2.61.6-5.83,1.61-8.65.6-2,.8-4,1.61-6,.6-1.41.4-3,.8-4.63l.61-3.41c-.2-.81-.61-1.21-1.21-1.21H284.55c2,2.81,1.41,5.83,1.81,8.65.41,3.21-.2,6.63-.6,9.85-.2,1.21-.4,2.82-2,3.42a1.53,1.53,0,0,1-1.21-1.61l.41-6.43Z"/><path d="M331,76.82c2,1.41,2,1.41,2.41,3.42-1,.61-1.61-.4-2.41-.2,0,.2-.2.4-.2.61.2,2.61-.21,5.22.2,7.84.2,1.61,0,3.42.2,5.23a21.38,21.38,0,0,0,1,6.23c.41,1,0,2.21.21,3.22a13.31,13.31,0,0,0,1.2,4c.61.4,1.21.4,1.41,0,.8-1.2,2-2,2.61-3.22,2-3.82,4.63-7.24,6.24-11.26a23,23,0,0,1,3.82-6.84h1.21a2.8,2.8,0,0,1,1,1.61,18.71,18.71,0,0,1-.8,3.22c-1.21,2.82-2.62,5.43-4,8-1.6,2.81-3.61,5.43-5.42,8a10.48,10.48,0,0,1-6.44,4.42c-3.42-1.4-4-2.41-4.83-6.43-.2-.81-.8-1.61-1-2.41-.4-2.82-.4-5.64-1.21-8.45a2.81,2.81,0,0,1,0-1.81c.2-.6-.2-1-.6-1.61a6,6,0,0,1-2,4,4.29,4.29,0,0,0-1,1.61c-.8,3-3.42,4.43-5.23,6.24-1.41.4-2.41-.41-3.62-.61a19.66,19.66,0,0,1-1.2-6.84,23.34,23.34,0,0,1,1.2-8.44c1.41-3.82,2.62-8,6.64-10.46a8.24,8.24,0,0,1,9.25.6Zm-14.28,17.7c1,1.41-.61,3.22,1,5,.81-1.41,2-2.21,2.62-3.62l5-10.86a11.85,11.85,0,0,0,1-6.44c-2.61-.2-3.42.21-4.62,2a29.39,29.39,0,0,0-3.82,9.85A41.73,41.73,0,0,0,316.73,94.52Z"/><path d="M369.42,91.91c-.41.4-.81.8-.81,1.2-.4,3.42-1.81,6.44-2.41,9.66a55.91,55.91,0,0,1-2.41,8.24,6.24,6.24,0,0,0-.61,1.81c-.4,2.82-2.41,4.43-4,6-1,.4-1.61-.41-2.41,0a10.86,10.86,0,0,1-2.62-2.62,9.48,9.48,0,0,1-1.2-3c-1.21-4.43-2.62-8.85-3.62-13.28a14,14,0,0,1-.21-5,19.12,19.12,0,0,1-2.21-8.64c-.2-.61-.8,0-1.2-.61.8-1.81-.61-3.42-.81-5.23s-1.41-3.41-2-5c.6-1,1.21-1.81,2.41-1.81A8.82,8.82,0,0,1,348.9,78a32.43,32.43,0,0,1,2.62,7.44c.4,3,1.41,5.83,1.81,8.85a10,10,0,0,0,.4,2.41,49.12,49.12,0,0,1,2.21,9,12.47,12.47,0,0,0,1.41,4.63c.4.8.4,1.61.8,2.41,1-.8.81-2,1.21-3,.81-2.22,1.21-4.43,2-6.64,1.81-4.42,2.42-9.25,4-13.68.81-2.21,1.21-4.62,2.62-6.63-.4-1.61.6-2.82,1-4.23,1.41-4.62,2.82-9.25,4.43-13.67l1.61-4.22c.6-1.81,1.41-3.62,3.22-4.63,1.2.4,1.2,1.41.8,2.41l-2,5.23-.6,2a72,72,0,0,1-3,11.27c-1.21,3.82-2.21,7.84-3.62,11.66A15.74,15.74,0,0,0,369.42,91.91Z"/><path d="M385.5,77.43l1-1.61a8.13,8.13,0,0,1,5.83-1.61,3,3,0,0,1,2,.6c1.61,1.81,3.42,3.42,4.43,5.84a18.2,18.2,0,0,1,1.2,8.64,6.09,6.09,0,0,1-2.41,1.41H387.31c-1.41,1.61-.2,3.62-1.61,4.83.4,1.61.61,3.22-.2,4.42,1,3.82,0,7.85,2.21,11.26.61.61,1.41.41,2.22.41,2.61-1.21,3.21-4.23,5.63-5.43,2.41-4.43,5.83-8.25,8.24-13.08a5.37,5.37,0,0,0,2-2.21,36.66,36.66,0,0,1,3.42-6,6.86,6.86,0,0,1,2.42-2.41c1-.41,1.4.4,2.21.6a21.46,21.46,0,0,1-5.43,10c-.4,2.62-2.21,4.83-3.62,7a75.88,75.88,0,0,1-7.64,10.26,18.05,18.05,0,0,1-4,3.82c-1.4,1-3,1.21-4.62,1.81a2.88,2.88,0,0,1-2.21-.6l-2.62-1.61c-.4-1-.6-2.21-1.61-2.82,0-3.62-2.61-6.83-1-10.45a6.57,6.57,0,0,1-.2-4.43c.2-1.21-.2-2.61.2-4,.6-2.41.4-5,1.81-7.24.6-.81-.2-1.41,0-2,.6-1.81,1-3.82,2.21-5.43Zm1.21,10.66a29,29,0,0,1,9.45-.81c.4-2.61-.6-4.62-1.21-6.63s-2-3-4.42-2.82C388.32,80.65,387.51,84.06,386.71,88.09Z"/><path d="M422.1,138c-2-1.81-2.61-4.42-4.62-6.43.8-2.22-.61-3.82-1.21-5.43a71,71,0,0,1-2.41-8.85,53.88,53.88,0,0,1-1.21-5.63A7.07,7.07,0,0,0,411,107.8a6.94,6.94,0,0,0,.2-4c-.6-1.61-.4-3.42-.8-5-.41-2.62-.41-5.43-1-8a5.75,5.75,0,0,1,0-2.61,7.39,7.39,0,0,0,0-3.62,22,22,0,0,1-.2-3.62,42,42,0,0,0-.2-7A13.07,13.07,0,0,1,409,69a2.22,2.22,0,0,1-.81-2.81c.81-2,0-4.23,1-6,.4-.8-.4-1.41-.4-2.21a6.42,6.42,0,0,0,.6-1.81c-.4-2.61.6-5,.6-7.64,0-1.61.61-3.22.41-4.83a10.43,10.43,0,0,1,.4-4.42c1-2.62.4-5.43,1.61-7.85.6-1.2.4-2.61.6-3.82a105.7,105.7,0,0,1,2.41-10.86c1.21-4.42,2.82-8.65,5.84-12.27a10,10,0,0,1,6.23-4,2.18,2.18,0,0,0,1.61-.4c2.41,0,4,1.81,6.23,2.21.21,0,.41.2.61.4,1.81,2.22,3.82,4.23,3.82,7.65a30.4,30.4,0,0,0,1,5.63c-.2.8-1.2,1.61-.6,3,.4,1-.4,2.22-.4,3.42a17.3,17.3,0,0,1-1.21,6.44c-.2.2-.4.4-.4.6,0,4-1.81,7.44-2.82,11.06a17.24,17.24,0,0,1-1.4,3.42c-1,1.41-.81,3-1.61,4.63-2,3.82-3.42,7.84-5,11.66l-2.82,6c-1.6,3.21-2.81,6.83-4.82,9.85-1.41,2.21-2,4.83-3.42,7.24a8.25,8.25,0,0,0-.6,5,9.49,9.49,0,0,0,.4,3.42c.6,1.81.4,3.62.6,5.43.2,1.61.6,3.42,0,5.23-.2,1,.6,1.6,1.21,2.21,0,.8-.61,1.61-.4,2.61.6,2,1.4,4.23,1,6.44,1.21,1.41.6,3.22,1.41,4.62.4.61,0,1-.2,1.61,0,.81.8,1,1,1.61,0,4.43,2,8.05,3.82,11.87,1.81-.81,2.22-2.42,2.82-3.82A133.78,133.78,0,0,0,433,114.63c1-3.42,2-7,3.22-10.45a10.2,10.2,0,0,0,.4-2.42c0-.6.4-1,1-1.41a3.43,3.43,0,0,1,1.81,2.82,13.88,13.88,0,0,1-.81,6.44c-2,5.83-4.22,11.66-6.43,17.49a39.94,39.94,0,0,1-5,9.05,17.37,17.37,0,0,0-2.62,1.21c-1.4,0-2.21-.6-3.21-.8Zm-7.24-76.62c-.2,5,1,10,.4,15.08a10.54,10.54,0,0,0,2.22-3.82c.4-1.21,1-2.21,1.4-3.22a51.7,51.7,0,0,0,2.22-4.82c1.2-3.42,2.81-6.64,4-10.06,1.41-3.82,3.82-7.24,4.42-11.26a12.12,12.12,0,0,1,1-2.41,11.83,11.83,0,0,0,1.61-4.43c.2-1.41,1.2-2.61,1.61-4,.4-1.21.4-2.62,1-3.62.81-1.21.4-2.62.81-3.82a31.16,31.16,0,0,0,1-6.24c.2-1-.4-1.81-.2-2.61a11,11,0,0,0-.4-6.24,7.72,7.72,0,0,0-3.82-5.43h-4.43l-2,1.21a9.14,9.14,0,0,0-2.81,3.42,44,44,0,0,0-3.42,9.85,8.88,8.88,0,0,1-1.21,3.22,24.36,24.36,0,0,1,0,3.82c-.8,3.22-1.21,6.44-1.81,9.66-.2,1.2.2,2.21,0,3.42-.8,3.62-1.61,7-1.21,10.86a23.44,23.44,0,0,1-.8,9.85Zm.2-.81c0,.21-.2.61-.2.81h.2Z"/><path d="M492.08,85.67c0,.2-.8,3-.8,3.22-.8,2.41-1.81,4.83-2.82,7.24L485.25,102c-1,2-2.62,3.22-3.82,4.83-1,1.41-2.82,1.41-4.43,1.21a5.74,5.74,0,0,1-2.81-5c0-2.62-.81-5-.21-7.64.21-1.21-.4-2.42-.2-3.82,0-1,.41-2,.41-3,0-.6.4-1.21,0-2a3.26,3.26,0,0,1,0-2.42,41.07,41.07,0,0,0,.6-12.26c-2-1.61-4.83-1.41-7.44-2.22,0,2.62,0,5-.2,7.45a32.37,32.37,0,0,1-2,10.65,24.81,24.81,0,0,0-1.21,3.62c-1.21,4.23-3.42,8-5.63,11.87-1.41,2.41-3.22,4.63-4.83,7-2.41,3.62-5.23,6.84-9.85,7.64-3-.4-4.83-2.61-6.24-5a24,24,0,0,1-1.4-5.43c-.41-1.61-1-3.21-.21-4.82-1-1.81-.4-3.82-.4-5.84a26.15,26.15,0,0,1,1.41-8.84,2.93,2.93,0,0,0,.4-1.21A13.55,13.55,0,0,1,440,78a1.2,1.2,0,0,0,.2-.8l1.61-.81c4.22-2,7-1.2,9.45,3s2.82,6,2.61,11.06a8.6,8.6,0,0,1-4,1.21,32.12,32.12,0,0,0-4.62.6c-1.41.4-2.82.2-4,.6-1.2,1.41.21,3.42-1.2,4.63.6,1.41,1.2,2.61.4,3.82-.4.8.4,1.41.4,2.21a24.62,24.62,0,0,0,2,9.05l1,.61h.6a4.65,4.65,0,0,0,2-1.41c1.81-2.21,3.62-4.43,5.23-6.84,2-3,3.62-6.23,5.83-9.25a11,11,0,0,0,1.81-3.42c.41-1.41.61-3,1.81-4.22v-.61l1.81-9.65c.41-2.21,0-4.42.41-6.64.6-3-.81-5.43-2.62-7.44-.2-1.2.2-2.41-.6-3.22a5.36,5.36,0,0,1,2-2.21,2.42,2.42,0,0,1,2.41,1.61l1.21,2.41a4.24,4.24,0,0,0,2.82,2.42,46.4,46.4,0,0,0,7,2A4.31,4.31,0,0,1,479.21,71c.21,2,0,4,.61,5.83a1.77,1.77,0,0,1-.2,1.41,6.3,6.3,0,0,0-.41,2.82,29.82,29.82,0,0,1-.8,7.24,33,33,0,0,0-.4,4.42c-.2,1.61-1,3.22-.2,5,.2.4-.21,1.21-.41,1.81.61.6.2,1.61.81,2.41,1,.2,1.41-.6,1.81-1.2a39.51,39.51,0,0,0,5.23-9.46c.8-2,2-4,2.21-6.23,2.21-6.84,4.22-5.63,5-3.82Zm-44.44-5c-1-.41-1.81-.21-2.41-.81a4.49,4.49,0,0,0-2.42,4.43c.2,1-.6,1.6-1,2.41-.2,1.21.2,2.21-.61,3.42,2-.4,3.62-.81,5.23-1a40.66,40.66,0,0,1,5-.2A14.6,14.6,0,0,0,448,80.44Z"/></g></g></svg>